@startuml

[*] --> Login

Login --> Dashboard : success

Dashboard --> SalesModule
Dashboard --> InventoryModule
Dashboard --> ProductionModule
Dashboard --> HRModule
Dashboard --> SupplierModule
Dashboard --> AccountingModule
Dashboard --> ReportsModule

SalesModule --> CreateSalesOrder
SalesModule --> ViewSalesOrders

InventoryModule --> ViewStock
InventoryModule --> ImportRawMaterial

ProductionModule --> CreateProductionOrder
ProductionModule --> UpdateProductionStatus

HRModule --> ManageEmployees
AccountingModule --> GenerateInvoice
SupplierModule --> ManageSuppliers
ReportsModule --> ViewReports

@enduml
